<?xml version="1.0" encoding="utf-8"?>
<!-- Generator: Adobe Illustrator 27.5.0, SVG Export Plug-In . SVG Version: 6.00 Build 0)  -->
<svg version="1.1" xmlns="http://www.w3.org/2000/svg" xmlns:xlink="http://www.w3.org/1999/xlink" x="0px" y="0px"
	 viewBox="0 0 500 500" style="enable-background:new 0 0 500 500;" xml:space="preserve">
<g id="BACKGROUND">
	<rect style="fill-rule:evenodd;clip-rule:evenodd;fill:#E7EAF3;" width="500" height="500"/>
	<polygon style="fill-rule:evenodd;clip-rule:evenodd;fill:#DADEE9;" points="72.84,94.165 436.03,105.578 421.503,320.38 
		77.008,316.696 	"/>
</g>
<g id="OBJECTS">
	<path style="fill-rule:evenodd;clip-rule:evenodd;fill:#D6DAE6;" d="M258.863,427.837c106.152,0,192.73-7.748,192.73-17.245
		s-86.578-17.244-192.73-17.244c-106.15,0-192.729,7.746-192.729,17.244S152.713,427.837,258.863,427.837z"/>
	<g>
		<g>
			<path style="fill-rule:evenodd;clip-rule:evenodd;fill:#96C042;" d="M135.662,229.532l-11.548,104.301
				c0,0,7.218,2.888,8.301-0.722c1.083-3.608,6.677-102.496,6.677-102.496L135.662,229.532z"/>
			<path style="fill-rule:evenodd;clip-rule:evenodd;fill:#96C042;" d="M130.578,212.791c-2.84-5.838-1.144-18.539,13.599-13.74
				c-0.674,3.741-1.249,8.881-0.084,11.845c1.493,3.802,2.785-3.794,6.365-9.112c0.302,0.16,0.607,0.325,0.917,0.497
				c15.269,8.454,23.122,30.547,25.726,49.751c-3.244,1.527-6.342,3.63-5.22,5.782c0.882,1.686,3.372,2.182,6.017,2.174
				c0.298,4.638,0.27,8.932-0.049,12.599c0,0-29.314-0.736-51.516-9.345c1.203-3.651,2.615-9.17-0.197-8.315
				c-2.555,0.778-4.494,3.675-5.607,5.788c-9.257-4.527-16.422-10.769-18.194-19.376
				C96.258,211.829,130.578,212.791,130.578,212.791L130.578,212.791z M133.175,252.852c-0.632,5.053,6.947-2.617,4.421-4.511
				C135.07,246.447,133.175,252.852,133.175,252.852z"/>
		</g>
		<g>
			<path style="fill-rule:evenodd;clip-rule:evenodd;fill:#FFFFFF;" d="M95.195,211.503c0,0-42.837-25.871-44.282,5.989
				c-0.108,2.369-0.034,4.764,0.186,7.17c6.183-2.216,15.707-4.955,17.3-1.481c1.821,3.973-9.535,10.601-15.048,13.535
				c4.219,15.416,12.94,30.055,19.273,39.339c1.362-1.086,2.81-1.97,3.736-1.764c1.265,0.281-0.013,2.88-1.476,5.001
				c3.074,4.3,5.174,6.824,5.174,6.824s21.899-6.519,36.521-23.405c-4.038-3.212-10.899-9.337-9.313-12.746
				c1.615-3.474,10.335,1.876,14.944,5.033c4.354-7.197,7.219-15.822,7.202-26.069c-0.003-1.905-0.078-3.668-0.212-5.309
				c-3.042,0.702-6.273,1.043-6.839-0.478c-0.803-2.157,3.32-4.243,5.979-5.446C122.55,191.437,95.195,211.503,95.195,211.503
				L95.195,211.503z M67.243,235.126c0,0,4.998-4.085,6.916-2.247C76.076,234.717,64.973,239.687,67.243,235.126z"/>
			<polygon style="fill-rule:evenodd;clip-rule:evenodd;fill:#AEC755;" points="101.197,221.592 113.467,337.082 106.249,337.082 
				97.226,221.231 			"/>
			<path style="fill-rule:evenodd;clip-rule:evenodd;fill:#BDD95B;" d="M92.419,212.424c0,0-44.01-26.12-44.01,6.048
				c0,2.391,0.182,4.81,0.512,7.238c6.081-2.237,15.483-5.002,17.232-1.494c2.001,4.012-9.053,10.703-14.434,13.665
				c4.919,15.565,14.304,30.346,21.056,39.718c1.311-1.097,2.72-1.989,3.656-1.78c1.277,0.284,0.117,2.908-1.249,5.049
				c3.269,4.341,5.483,6.889,5.483,6.889s21.604-6.581,35.459-23.631c-4.182-3.243-11.322-9.427-9.891-12.869
				c1.458-3.506,10.421,1.895,15.173,5.083c4.028-7.266,6.502-15.976,6.02-26.32c-0.09-1.923-0.245-3.704-0.453-5.361
				c-3.011,0.709-6.226,1.054-6.862-0.483c-0.9-2.178,3.128-4.284,5.732-5.499C118.864,192.165,92.419,212.424,92.419,212.424
				L92.419,212.424z M65.538,236.275c0,0,4.813-4.125,6.813-2.269C74.354,235.863,63.476,240.88,65.538,236.275z"/>
			<path style="fill-rule:evenodd;clip-rule:evenodd;fill:#D6EB86;" d="M125.112,223.418c-0.602-0.162-1.042-0.456-1.237-0.928
				c-0.43-1.041,0.266-2.065,1.393-2.984c-0.203-8.198-4.212-16.923-23.195-8.631c0,0,20.21-9.564,21.834,19.128
				C123.908,230.003,124.747,227.119,125.112,223.418z"/>
			<path style="fill-rule:evenodd;clip-rule:evenodd;fill:#D6EB86;" d="M49.583,213.818c0,0,4.562-6.415,18.389-8.553
				C67.972,205.265,51.864,201.273,49.583,213.818z"/>
			<g>
				<path style="fill-rule:evenodd;clip-rule:evenodd;fill:#D6EB86;" d="M97.973,261.517c0.788,0.096,1.702,0.81,2.04,1.595
					c0.339,0.784-0.026,1.342-0.813,1.246c-0.789-0.097-1.702-0.811-2.04-1.595C96.819,261.978,97.184,261.42,97.973,261.517z"/>
				<path style="fill-rule:evenodd;clip-rule:evenodd;fill:#D6EB86;" d="M93.914,244.263c1.125-0.652,3.402,0.584,5.086,2.76
					c1.685,2.175,2.138,4.466,1.012,5.118c-1.125,0.651-3.402-0.584-5.086-2.76C93.242,247.206,92.789,244.913,93.914,244.263z"/>
				<path style="fill-rule:evenodd;clip-rule:evenodd;fill:#D6EB86;" d="M74.718,251.846c-0.532-0.307-1.608,0.277-2.404,1.304
					c-0.794,1.028-1.009,2.111-0.478,2.418c0.532,0.308,1.608-0.275,2.404-1.303C75.036,253.237,75.249,252.154,74.718,251.846z"/>
			</g>
		</g>
		<path style="fill-rule:evenodd;clip-rule:evenodd;fill:#D6DAE6;" d="M153.852,337.329l-9.091,72.017h-63.57l-8.937-72.876
			c-0.177-1.439,0.233-2.747,1.201-3.828c0.967-1.08,2.222-1.631,3.672-1.615l71.966,0.841c1.433,0.018,2.66,0.585,3.603,1.664
			C153.637,334.614,154.031,335.908,153.852,337.329z"/>
		<g>
			<path style="fill-rule:evenodd;clip-rule:evenodd;fill:#96C042;" d="M89.16,325.729c1.744,0,3.346,0.476,4.604,1.267
				c3.592-3.469,10.379-5.808,18.159-5.808c10.927,0,19.892,4.613,20.805,10.49l-50.883-0.595
				C82.08,328.095,85.265,325.729,89.16,325.729L89.16,325.729z M141.109,328.269c2.507,0,4.539,1.568,4.539,3.503l-0.001,0.058
				l-9.077-0.107C136.603,329.811,138.623,328.269,141.109,328.269z"/>
			<path style="fill-rule:evenodd;clip-rule:evenodd;fill:#96C042;" d="M94.81,321.836l0.876-3.064
				c0.547-1.915-0.57-3.927-2.485-4.474l-3.063-0.877c-0.344-0.098-0.703,0.102-0.802,0.446l-0.876,3.063
				c-0.548,1.914,0.57,3.927,2.483,4.475l3.064,0.876C94.353,322.38,94.711,322.18,94.81,321.836z"/>
		</g>
	</g>
	<g>
		<path style="fill-rule:evenodd;clip-rule:evenodd;fill:#3A3C6C;" d="M340.804,256.618h-7.963h-2.452h-10.271h-2.452h-7.964v-3.716
			h7.964v-15.698h-22.571v-5.188l22.571-0.145v-7.374h2.452v7.359l10.271-0.067v-5.476h2.452v5.46l22.57-0.145v5.577h-22.57v15.698
			h7.963V256.618L340.804,256.618z M320.118,237.203v15.698h10.271v-15.698H320.118z"/>
		<path style="fill-rule:evenodd;clip-rule:evenodd;fill:#232446;" d="M316.864,116.827h25.211c4.005,0,7.279,3.274,7.279,7.279l0,0
			c0,4.005-3.274,7.279-7.279,7.279h-25.211c-4.005,0-7.279-3.274-7.279-7.279l0,0C309.585,120.101,312.859,116.827,316.864,116.827
			z"/>
		<path style="fill-rule:evenodd;clip-rule:evenodd;fill:#FFFFFF;" d="M238.794,123.491h172.919c2.638,0,4.795,2.157,4.795,4.795
			v101.904c0,2.638-2.157,4.795-4.795,4.795H238.794c-2.638,0-4.795-2.157-4.795-4.795V128.286
			C233.998,125.648,236.156,123.491,238.794,123.491z"/>
		<path style="fill-rule:evenodd;clip-rule:evenodd;fill:#E4E4E4;" d="M306.485,123.491h39.767l0.006,0.031l0,0
			c0.616,4.324-2.419,7.863-6.743,7.863h-24.044c-4.324,0-8.366-3.538-8.983-7.863l0,0L306.485,123.491z"/>
		<g>
			<path style="fill-rule:evenodd;clip-rule:evenodd;fill:#3A3C6C;" d="M312.648,115.66h25.211c4.004,0,7.279,3.274,7.279,7.279l0,0
				c0,4.005-3.274,7.279-7.279,7.279h-25.211c-4.004,0-7.279-3.274-7.279-7.279l0,0C305.369,118.934,308.644,115.66,312.648,115.66z
				"/>
			<path style="fill-rule:evenodd;clip-rule:evenodd;fill:#232446;" d="M313.087,127.155c2.323,0,4.218-1.894,4.218-4.217
				c0-2.323-1.895-4.217-4.218-4.217c-2.323,0-4.217,1.894-4.217,4.217C308.87,125.261,310.764,127.155,313.087,127.155z"/>
			<path style="fill-rule:evenodd;clip-rule:evenodd;fill:#232446;" d="M321.612,125.333c1.318,0,2.394-1.076,2.394-2.394
				c0-1.318-1.076-2.395-2.394-2.395s-2.394,1.076-2.394,2.395C319.218,124.257,320.294,125.333,321.612,125.333z"/>
			<path style="fill-rule:evenodd;clip-rule:evenodd;fill:#FFFFFF;" d="M338.663,120.536c0.685,0,1.244-0.558,1.244-1.242
				c0-0.685-0.559-1.244-1.244-1.244c-0.684,0-1.243,0.559-1.243,1.244C337.42,119.978,337.979,120.536,338.663,120.536z"/>
			<path style="fill-rule:evenodd;clip-rule:evenodd;fill:#CF4970;" d="M313.088,124.223c0.708,0,1.284-0.576,1.284-1.284
				c0-0.708-0.576-1.285-1.284-1.285c-0.708,0-1.284,0.576-1.284,1.285C311.803,123.646,312.38,124.223,313.088,124.223z"/>
		</g>
		<g>
			<g>
				<g>
					<path style="fill-rule:evenodd;clip-rule:evenodd;fill:#CF4970;" d="M297.53,137.88h33.297c0.698,0,1.268,0.57,1.268,1.268
						v21.15c0,0.699-0.57,1.268-1.268,1.268H297.53c-0.699,0-1.268-0.569-1.268-1.268v-21.15
						C296.262,138.45,296.832,137.88,297.53,137.88z"/>
					<g>
						<path style="fill-rule:evenodd;clip-rule:evenodd;fill:#DC8C8C;" d="M319.919,151.336c0,0-0.296,4.512-0.259,7.841h-6.62
							v-4.217L319.919,151.336z"/>
						<g>
							<path style="fill-rule:evenodd;clip-rule:evenodd;fill:#3A3C6C;" d="M319.991,148.715l0.809-4.478
								c0,0,0.038-1.29-1.403-0.804c0,0,2.535-2.548-2.053-3.058c-2.447-0.813-6.187-1.05-7.964,1.266
								c0.243-2.163-2.756-1.495-4.052,0.632c0.135-0.817,0.496-1.658,1.223-2.438c0,0-3.257,1.609-1.904,4.632
								c-0.091,2.608,1.342,4.751,6.84,5.007C313.349,149.561,319.509,151.391,319.991,148.715L319.991,148.715z M319.397,143.433
								c0.518-1.168-0.068-2.093-1.191-2.693C319.429,141.156,320.432,141.945,319.397,143.433z"/>
							<path style="fill-rule:evenodd;clip-rule:evenodd;fill:#60629A;" d="M307.812,140.427c0.337-0.069,0.612,0.004,0.612,0.164
								c0,0.16-0.275,0.346-0.612,0.415c-0.337,0.069-0.611-0.005-0.611-0.164C307.201,140.682,307.474,140.496,307.812,140.427z"/>
							<path style="fill-rule:evenodd;clip-rule:evenodd;fill:#60629A;" d="M312.979,140.011c0.922-0.091,1.669,0.005,1.669,0.212
								c0,0.208-0.747,0.45-1.669,0.54c-0.921,0.09-1.669-0.005-1.669-0.212C311.31,140.344,312.058,140.102,312.979,140.011z"/>
						</g>
						<g>
							<g>
								<path style="fill-rule:evenodd;clip-rule:evenodd;fill:#DC8C8C;" d="M307.698,146.799c0,0-0.673,9.202,4.041,11.448
									c0,0,7.257,0.224,7.706-6.509c3.038-0.317,1.953-5.023-0.225-2.787l-0.757-2.049
									C318.462,146.902,312.337,147.884,307.698,146.799z"/>
								<path style="fill-rule:evenodd;clip-rule:evenodd;fill:#EBB39D;" d="M312.026,158.243c1.349-0.042,7.023-0.576,7.419-6.505
									c3.038-0.317,1.953-5.023-0.225-2.787l-0.757-2.049c0,0-3.195,0.512-6.716,0.388c-0.073,1.237-0.145,2.942-0.108,4.378
									c-2.233-0.611-1.65,2.352-0.114,1.874L312.026,158.243z"/>
								<path style="fill-rule:evenodd;clip-rule:evenodd;fill:#DC8C8C;" d="M319.444,151.738c1.791-0.187,2.149-1.898,1.695-2.815
									c-0.721-0.133-1.517,0.777-1.517,0.777c0.92-0.119,0.756,1.21-0.178,1.346V151.738z"/>
								<path style="fill-rule:evenodd;clip-rule:evenodd;fill:#DC8C8C;" d="M319.219,148.951l-0.757-2.049
									c0,0-6.125,0.982-10.764-0.103c0,0,5.004,2.058,10.39,0.637L319.219,148.951z"/>
								<path style="fill-rule:evenodd;clip-rule:evenodd;fill:#DC8C8C;" d="M311.481,153.206c0.095-0.592,0.866-0.66,0.756-0.124
									C312.237,153.082,311.956,152.885,311.481,153.206z"/>
							</g>
							<g>
								<path style="fill-rule:evenodd;clip-rule:evenodd;fill:#3A3C6C;" d="M307.17,148.825h3.147c0,0,0.542-0.327,0.259-0.88
									c0,0-0.107,0.294-0.243,0.379c0,0-0.062-0.435-0.762-0.587C309.572,147.737,307.976,147.578,307.17,148.825z"/>
								<path style="fill-rule:evenodd;clip-rule:evenodd;fill:#3A3C6C;" d="M315.815,148.825h-3.148c0,0-0.542-0.327-0.259-0.88
									c0,0,0.106,0.294,0.242,0.379c0,0-0.103-0.344,0.238-0.492c0.01,0.25,0.048,0.292,0.048,0.292
									c-0.024-0.16,0.029-0.302,0.031-0.306C313.791,147.423,315.329,148.075,315.815,148.825L315.815,148.825z M315.941,148.636
									c0.121-0.844-0.907-0.574-0.907-0.574C315.667,148.182,315.941,148.636,315.941,148.636z"/>
							</g>
							<g>
								<path style="fill-rule:evenodd;clip-rule:evenodd;fill:#232446;" d="M308.817,148.407c0.547,0,1.042,0.222,1.401,0.58
									c0.358,0.359,0.58,0.855,0.58,1.401c0,0.547-0.222,1.043-0.58,1.402c-0.359,0.357-0.853,0.58-1.401,0.58
									c-0.547,0-1.043-0.223-1.4-0.58c-0.359-0.359-0.58-0.855-0.58-1.402c0-0.546,0.221-1.042,0.58-1.401
									C307.774,148.629,308.27,148.407,308.817,148.407L308.817,148.407z M310.145,149.06c-0.34-0.34-0.81-0.551-1.328-0.551
									c-0.519,0-0.989,0.211-1.329,0.551c-0.34,0.34-0.55,0.81-0.55,1.328c0,0.519,0.21,0.989,0.55,1.329
									c0.34,0.34,0.809,0.55,1.329,0.55c0.518,0,0.988-0.21,1.328-0.55c0.34-0.34,0.551-0.81,0.551-1.329
									C310.696,149.87,310.485,149.4,310.145,149.06z"/>
								<path style="fill-rule:evenodd;clip-rule:evenodd;fill:#232446;" d="M316.01,150.305l4.295-2.159
									c0.001-0.001,0.678-0.292,0.946,0.342l-0.094,0.04c-0.223-0.526-0.783-0.301-0.812-0.288l-4.334,2.178
									c-0.008,0.535-0.229,1.018-0.58,1.37c-0.359,0.357-0.853,0.58-1.401,0.58c-0.547,0-1.042-0.223-1.4-0.58
									c-0.358-0.359-0.58-0.855-0.58-1.402c0-0.546,0.222-1.042,0.58-1.401c0.359-0.358,0.853-0.58,1.4-0.58
									c0.475,0,0.91,0.167,1.251,0.445c0.348,0.282,0.598,0.682,0.69,1.137c0.013,0.066,0.023,0.131,0.03,0.198
									C316.006,150.227,316.008,150.267,316.01,150.305L316.01,150.305z M315.217,148.931c-0.323-0.264-0.736-0.422-1.186-0.422
									c-0.519,0-0.988,0.211-1.327,0.551c-0.34,0.34-0.551,0.81-0.551,1.328c0,0.519,0.211,0.989,0.551,1.329
									c0.34,0.34,0.809,0.55,1.327,0.55c0.519,0,0.989-0.21,1.329-0.55c0.34-0.34,0.549-0.81,0.549-1.329
									c0-0.064-0.003-0.129-0.009-0.19c-0.006-0.063-0.016-0.126-0.028-0.187C315.783,149.578,315.547,149.199,315.217,148.931z"
									/>
							</g>
						</g>
						<path style="fill-rule:evenodd;clip-rule:evenodd;fill:#FFFFFF;" d="M311.151,154.592l3.19-0.484
							c0.102-0.015,0.196,0.021,0.261,0.101c0.064,0.078,0.083,0.179,0.048,0.276c-0.597,1.67-2.619,1.969-3.683,0.559
							c-0.061-0.082-0.075-0.183-0.036-0.278C310.97,154.671,311.05,154.609,311.151,154.592z"/>
						<path style="fill-rule:evenodd;clip-rule:evenodd;fill:#3A3C6C;" d="M319.66,159.177c0,0,6.165-0.27,6.83,2.391h-19.733
							c0,0,2.374-3.263,6.283-2.391H319.66z"/>
					</g>
				</g>
				<g>
					<path style="fill-rule:evenodd;clip-rule:evenodd;fill:#6F89DB;" d="M338.01,137.88h33.297c0.699,0,1.268,0.57,1.268,1.268
						v21.15c0,0.699-0.569,1.268-1.268,1.268H338.01c-0.698,0-1.268-0.569-1.268-1.268v-21.15
						C336.742,138.45,337.312,137.88,338.01,137.88z"/>
					<g>
						<path style="fill-rule:evenodd;clip-rule:evenodd;fill:#3A3C6C;" d="M360.467,142.12c3.416,2.404,3.739,14.874-1.21,17.193
							c0,0-7.026-2.484-11.743,0.332c-4.61-5.008-1.397-14.588,0.363-16.885c4.826-2.485,7.56-2.656,11.233-0.678
							C359.747,142.424,359.898,141.755,360.467,142.12z"/>
						<polygon style="fill-rule:evenodd;clip-rule:evenodd;fill:#F1F2FF;" points="354.772,157.326 356.992,156.33 364.466,160.318 
							364.306,161.568 344.331,161.568 344.177,160.444 351.44,156.33 						"/>
						<path style="fill-rule:evenodd;clip-rule:evenodd;fill:#EEC16E;" d="M354.772,157.326l2.22-0.995l1.449,0.773
							c-0.389,1.825-2.133,3.202-4.225,3.202c-2.075,0-3.806-1.355-4.215-3.16l1.439-0.816L354.772,157.326z"/>
						<path style="fill-rule:evenodd;clip-rule:evenodd;fill:#D77F7F;" d="M351.44,153.647h5.552v2.684
							c0,1.477-1.207,2.685-2.684,2.685h-0.184c-1.475,0-2.684-1.208-2.684-2.685V153.647z"/>
						<path style="fill-rule:evenodd;clip-rule:evenodd;fill:#3A3C6C;" d="M359.884,148.625c0.938-1.786,2.468-7.234-0.788-6.926
							c-0.121-0.38-0.648-1.867-1.619-2.35l-0.034,0.067c0.826,0.411,1.325,1.58,1.518,2.116c-3.9-5.011-15.976-1.703-9.65,8.585
							L359.884,148.625L359.884,148.625z M362.083,145.217c0.007,0.016,2.657,5.814,0.35,11.529l-0.07-0.028
							c2.294-5.685-0.341-11.454-0.348-11.471L362.083,145.217z"/>
						<path style="fill-rule:evenodd;clip-rule:evenodd;fill:#EAAB9F;" d="M349.213,144.848h10.008v2.467
							c1.016-0.194,1.839,0.473,1.839,1.488c0,1.016-0.823,1.996-1.839,2.19c-0.382,2.816-2.087,4.948-5.005,4.989
							c-2.921,0.042-4.789-2.086-5.003-4.989c-1.016-0.194-1.84-1.174-1.84-2.19c0-1.016,0.824-1.683,1.84-1.488V144.848z"/>
						<path style="fill-rule:evenodd;clip-rule:evenodd;fill:#D77F7F;" d="M349.213,144.848h7.449c0,0-2.326,5.744-7.559,2.45
							c0.036,0.005,0.073,0.01,0.11,0.017V144.848L349.213,144.848z M356.662,144.848c0.212,1.711,2.011,2.045,2.559,2.107v-2.107
							H356.662z"/>
						<path style="fill-rule:evenodd;clip-rule:evenodd;fill:#D77F7F;" d="M360.911,148.106c0.096,0.204,0.149,0.438,0.149,0.697
							c0,1.016-0.823,1.996-1.839,2.19v-0.785c0.662-0.075,1.392-1.557,0.101-1.504
							C359.322,148.705,359.938,147.679,360.911,148.106z"/>
						<path style="fill-rule:evenodd;clip-rule:evenodd;fill:#3A3C6C;" d="M354.872,142.967l1.832,1.695l0.063,0.017l0.002,0.018
							c0,0.001,0.003,0.048,0.014,0.127l2.761-0.547v1.906c-1.485,0.286-2.344-0.567-2.694-1.041
							c0.191,0.712,0.823,1.98,2.869,1.486l0.012,0.048c-2.216,0.535-2.806-0.957-2.96-1.646c-0.074-0.109-0.109-0.181-0.109-0.181
							l0.072-0.014c-0.006-0.04-0.009-0.072-0.012-0.094c-0.237,0.443-2.491,4.34-7.621,2.557l-0.079-3.204L354.872,142.967z"/>
						<path style="fill-rule:evenodd;clip-rule:evenodd;fill:#D77F7F;" d="M347.521,148.106c-0.096,0.204-0.149,0.438-0.149,0.697
							c0,1.016,0.824,1.996,1.84,2.19v-0.785c-0.664-0.075-1.394-1.557-0.102-1.504
							C349.111,148.705,348.494,147.679,347.521,148.106z"/>
						<path style="fill-rule:evenodd;clip-rule:evenodd;fill:#F1F2FF;" d="M346.142,161.568c-0.381-0.656-0.995-1.117-1.965-1.122
							c-0.643-0.005-1.154,0.424-1.56,1.122H346.142z"/>
						<path style="fill-rule:evenodd;clip-rule:evenodd;fill:#F1F2FF;" d="M362.432,161.568c0.376-0.723,1.005-1.242,2.034-1.249
							c0.682-0.003,1.216,0.477,1.63,1.249H362.432z"/>
						<path style="fill-rule:evenodd;clip-rule:evenodd;fill:#3A3C6C;" d="M355.598,147.865h2.395
							C357.594,147.446,355.246,146.799,355.598,147.865L355.598,147.865z M355.479,147.48c0,0-0.016,0.217,0.089,0.37
							C355.568,147.85,355.272,147.702,355.479,147.48z"/>
						<g>
							<path style="fill-rule:evenodd;clip-rule:evenodd;fill:#3A3C6C;" d="M355.72,149.627c0.004,0.026,0.846-0.568,1.983-0.022
								C357.627,149.377,356.519,148.433,355.72,149.627z"/>
							<path style="fill-rule:evenodd;clip-rule:evenodd;fill:#3A3C6C;" d="M352.902,149.627c-0.005,0.026-0.847-0.568-1.983-0.022
								C350.995,149.377,352.104,148.433,352.902,149.627z"/>
						</g>
						<path style="fill-rule:evenodd;clip-rule:evenodd;fill:#D77F7F;" d="M353.16,151.451c0,0,0.66,0.514,2.114,0.1
							C355.274,151.55,354.047,153.025,353.16,151.451z"/>
						<path style="fill-rule:evenodd;clip-rule:evenodd;fill:#3A3C6C;" d="M352.717,153.459c0,0,1.716,0.34,2.999,0
							C355.615,153.647,354.052,154.325,352.717,153.459z"/>
						<path style="fill-rule:evenodd;clip-rule:evenodd;fill:#3A3C6C;" d="M352.928,147.865h-2.395
							C350.931,147.446,353.278,146.799,352.928,147.865L352.928,147.865z M353.045,147.48c0,0,0.017,0.217-0.089,0.37
							C352.956,147.85,353.253,147.702,353.045,147.48z"/>
						<path style="fill-rule:evenodd;clip-rule:evenodd;fill:#60629A;" d="M352.342,139.723c1.365-0.18,2.473-0.008,2.473,0.386
							c0,0.393-1.108,0.857-2.473,1.037c-1.365,0.18-2.471,0.008-2.471-0.386C349.87,140.367,350.977,139.904,352.342,139.723z"/>
					</g>
				</g>
				<g>
					<path style="fill-rule:evenodd;clip-rule:evenodd;fill:#E7EAF3;" d="M298.257,165.266h52.366c1.098,0,1.994,0.897,1.994,1.995
						v33.262c0,1.098-0.896,1.994-1.994,1.994h-52.366c-1.098,0-1.994-0.896-1.994-1.994v-33.262
						C296.262,166.163,297.159,165.266,298.257,165.266z"/>
					<g>
						<path style="fill-rule:evenodd;clip-rule:evenodd;fill:#FFFFFF;" d="M324.439,195.098c6.173,0,11.207-5.034,11.207-11.206
							c0-6.173-5.035-11.206-11.207-11.206c-6.172,0-11.206,5.034-11.206,11.206C313.233,190.064,318.267,195.098,324.439,195.098z"
							/>
						<path style="fill-rule:evenodd;clip-rule:evenodd;fill:#E7EAF3;" d="M324.44,176.252c2.766,0,5.009,2.242,5.009,5.009
							c0,2.765-2.243,5.007-5.009,5.007c-2.767,0-5.009-2.242-5.009-5.007C319.432,178.494,321.673,176.252,324.44,176.252
							L324.44,176.252z M331.889,192.263c-1.981,1.764-4.59,2.835-7.449,2.835c-2.861,0-5.469-1.071-7.449-2.835
							c1.319-2.789,4.158-4.721,7.449-4.721C327.731,187.543,330.571,189.474,331.889,192.263z"/>
					</g>
				</g>
				<g>
					<path style="fill-rule:evenodd;clip-rule:evenodd;fill:#BDD95B;" d="M378.489,137.88h33.297c0.698,0,1.268,0.57,1.268,1.268
						v21.15c0,0.699-0.57,1.268-1.268,1.268h-33.297c-0.699,0-1.268-0.569-1.268-1.268v-21.15
						C377.221,138.45,377.79,137.88,378.489,137.88z"/>
					<g>
						<path style="fill-rule:evenodd;clip-rule:evenodd;fill:#EBB39D;" d="M400.498,146.661c0,0,1.137,5.237-0.894,9.184
							c0,0-7.244,1.127-8.379-4.592c0,0-2.044-0.241-2.233-1.893c-0.19-1.652,1.609-1.833,2.176-0.947l0.246,1.228l0.813-0.101
							l0.568-2.456C392.807,147.036,396.359,148.113,400.498,146.661z"/>
						<path style="fill-rule:evenodd;clip-rule:evenodd;fill:#D77F7F;" d="M391.051,151.222c-1.233-0.167-2.358-1.24-2.028-2.547
							c0.972-0.738,1.506,0.277,1.506,0.277c-0.927,0.352-0.354,1.387,0.484,1.329L391.051,151.222z"/>
						<path style="fill-rule:evenodd;clip-rule:evenodd;fill:#D77F7F;" d="M400.498,146.595c-2.543,1.731-6.422,1.122-7.29,0.866
							l-0.98,2.013l0.568-2.456C392.796,147.018,396.391,148.086,400.498,146.595z"/>
						<path style="fill-rule:evenodd;clip-rule:evenodd;fill:#3A3C6C;" d="M402.882,146.224c1.39-2.268,0.137-5.692-2.022-3.938
							c-2.872-3.967-8.541-2.363-8.982,0.281c-0.048-0.008-0.094-0.015-0.14-0.022c-0.035-0.586,0.053-2.021,1.602-2.708
							l-0.024-0.056c-1.573,0.7-1.671,2.15-1.638,2.756h-0.004c-0.242-0.185-0.798-0.493-1.646-0.27l0.015,0.058
							c0.735-0.193,1.242,0.022,1.506,0.197c-3.008-0.318-2.471,2.875-1.676,5.394c0.48-0.102,1.025,0.077,1.295,0.498l0.246,1.228
							l0.813-0.101l0.568-2.522c0,0,3.596,1.067,7.702-0.423c0,0,0.102,0.472,0.191,1.24c0,0,3.012,0.191,3.655-3.153
							C404.344,144.683,403.822,145.734,402.882,146.224z"/>
						<path style="fill-rule:evenodd;clip-rule:evenodd;fill:#EBB39D;" d="M390.984,151.142c0.388,1.103,1,3.457,1.055,7.426
							c0,0,2.015,0.724,5.277,0c0,0,0.224-1.193,0.232-2.716c-2.233-0.115-5.582-0.928-6.324-4.666
							C391.224,151.187,391.132,151.176,390.984,151.142z"/>
						<path style="fill-rule:evenodd;clip-rule:evenodd;fill:#D77F7F;" d="M391.194,151.803c0.172,0.597,0.358,1.392,0.512,2.408
							c0.682,1.516,2.243,3.086,5.747,3.349c0.048-0.463,0.091-1.055,0.095-1.708c-2.233-0.115-5.582-0.928-6.324-4.666
							C391.224,151.187,391.19,151.423,391.194,151.803z"/>
						<path style="fill-rule:evenodd;clip-rule:evenodd;fill:#FFFFFF;" d="M393.58,151.465c0,0,5.361-1.514,7.376,0.178
							c0,0-0.332,2.633-1.117,4.124c0,0-3.163,1.711-6.873-1.779l-1.93-2.787l0.137-0.067l1.879,2.68
							c0.225-0.669,0.381-1.548,0.388-2.254l-2.243-2.733l0.115-0.098L393.58,151.465z"/>
						<g>
							<path style="fill-rule:evenodd;clip-rule:evenodd;fill:#3A3C6C;" d="M395.524,148.877L395.524,148.877
								c0.205-0.045,0.41,0.087,0.455,0.293l0.065,0.294c0.045,0.206-0.088,0.411-0.293,0.456h-0.001
								c-0.205,0.044-0.409-0.087-0.453-0.293l-0.064-0.295C395.187,149.127,395.318,148.921,395.524,148.877z"/>
							<path style="fill-rule:evenodd;clip-rule:evenodd;fill:#3A3C6C;" d="M396.244,149.053c0,0-0.503-0.169-1.504,0.115
								C394.74,149.168,395.591,148.477,396.244,149.053z"/>
						</g>
						<g>
							<path style="fill-rule:evenodd;clip-rule:evenodd;fill:#3A3C6C;" d="M399.641,148.772h0.001
								c0.21,0.003,0.379,0.178,0.376,0.389l-0.006,0.301c-0.004,0.211-0.178,0.38-0.389,0.376l0,0
								c-0.21-0.003-0.38-0.178-0.376-0.388l0.006-0.302C399.256,148.937,399.431,148.768,399.641,148.772z"/>
							<path style="fill-rule:evenodd;clip-rule:evenodd;fill:#3A3C6C;" d="M400.282,148.958c0,0-0.504-0.169-1.504,0.116
								C398.779,149.074,399.628,148.383,400.282,148.958z"/>
						</g>
						<path style="fill-rule:evenodd;clip-rule:evenodd;fill:#CFE5FD;" d="M398.824,151.132c0,0-0.262,0.687-1.509,0.687
							C397.315,151.819,398.762,152.717,398.824,151.132z"/>
						<path style="fill-rule:evenodd;clip-rule:evenodd;fill:#FFFFFF;" d="M392.039,158.569l-6.598,2.999h18.839
							c-0.042-0.157-0.084-0.313-0.128-0.468l-6.836-2.532C394.053,159.293,392.039,158.569,392.039,158.569z"/>
						<path style="fill-rule:evenodd;clip-rule:evenodd;fill:#3A3C6C;" d="M390.621,159.213l-0.122,0.055
							c0.134,0.079,0.278,0.155,0.432,0.226c0.97,0.449,2.31,0.726,3.788,0.726c1.479,0,2.817-0.278,3.789-0.726
							c0.192-0.089,0.371-0.185,0.532-0.287l-0.129-0.048c-0.139,0.083-0.288,0.162-0.448,0.236
							c-0.956,0.443-2.281,0.716-3.743,0.716c-1.463,0-2.786-0.273-3.742-0.716C390.852,159.338,390.732,159.277,390.621,159.213z"
							/>
						<path style="fill-rule:evenodd;clip-rule:evenodd;fill:#FFFFFF;" d="M385.691,161.568c-0.093-0.006-0.183-0.006-0.272,0
							H385.691z"/>
					</g>
				</g>
				<g>
					<path style="fill-rule:evenodd;clip-rule:evenodd;fill:#E7EAF3;" d="M358.694,165.266h52.366c1.098,0,1.995,0.897,1.995,1.995
						v33.262c0,1.098-0.897,1.994-1.995,1.994h-52.366c-1.098,0-1.995-0.896-1.995-1.994v-33.262
						C356.699,166.163,357.596,165.266,358.694,165.266z"/>
					<g>
						<path style="fill-rule:evenodd;clip-rule:evenodd;fill:#FFFFFF;" d="M384.877,195.098c6.173,0,11.206-5.034,11.206-11.206
							c0-6.173-5.033-11.206-11.206-11.206c-6.173,0-11.206,5.034-11.206,11.206C373.671,190.064,378.704,195.098,384.877,195.098z"
							/>
						<path style="fill-rule:evenodd;clip-rule:evenodd;fill:#E7EAF3;" d="M384.877,176.542c2.766,0,5.009,2.243,5.009,5.009
							c0,2.765-2.243,5.009-5.009,5.009c-2.765,0-5.009-2.243-5.009-5.009C379.868,178.785,382.111,176.542,384.877,176.542
							L384.877,176.542z M392.326,192.554c-1.98,1.762-4.589,2.835-7.449,2.835c-2.859,0-5.469-1.072-7.449-2.835
							c1.318-2.79,4.158-4.721,7.449-4.721C388.168,187.833,391.008,189.764,392.326,192.554z"/>
					</g>
				</g>
			</g>
			<g>
				<path style="fill-rule:evenodd;clip-rule:evenodd;fill:#E7EAF3;" d="M242.777,137.882h46.076c1.52,0,2.763,1.244,2.763,2.763
					v83.538c0,1.52-1.244,2.764-2.763,2.764h-46.076c-1.52,0-2.763-1.244-2.763-2.764v-83.538
					C240.014,139.125,241.257,137.882,242.777,137.882z"/>
				<g>
					<g>
						<path style="fill-rule:evenodd;clip-rule:evenodd;fill:#3A3C6C;" d="M252.98,158.984c4.468,0,8.111-3.642,8.111-8.11
							s-3.644-8.111-8.111-8.111c-4.466,0-8.109,3.643-8.109,8.111S248.514,158.984,252.98,158.984z"/>
						<path style="fill-rule:evenodd;clip-rule:evenodd;fill:#E7EAF3;" d="M252.981,145.345c2.002,0,3.625,1.623,3.625,3.625
							c0,2.001-1.623,3.625-3.625,3.625c-2.003,0-3.626-1.623-3.626-3.625C249.355,146.968,250.979,145.345,252.981,145.345
							L252.981,145.345z M258.372,156.934c-1.433,1.275-3.322,2.051-5.391,2.051c-2.071,0-3.959-0.776-5.392-2.051
							c0.954-2.02,3.009-3.417,5.392-3.417C255.363,153.517,257.418,154.914,258.372,156.934z"/>
					</g>
					<g>
						<rect x="263.693" y="145.732" style="fill-rule:evenodd;clip-rule:evenodd;fill:#3A3C6C;" width="13.863" height="2.19"/>
						<rect x="263.693" y="149.88" style="fill-rule:evenodd;clip-rule:evenodd;fill:#3A3C6C;" width="19.582" height="2.19"/>
					</g>
				</g>
				<g>
					<g>
						<circle style="fill-rule:evenodd;clip-rule:evenodd;fill:#6F89DB;" cx="246.803" cy="175.821" r="3.57"/>
						<path style="fill-rule:evenodd;clip-rule:evenodd;fill:#EEC16E;" d="M246.803,181.214c1.971,0,3.57,1.599,3.57,3.57
							c0,1.971-1.598,3.57-3.57,3.57c-1.971,0-3.57-1.599-3.57-3.57C243.233,182.813,244.832,181.214,246.803,181.214z"/>
						<path style="fill-rule:evenodd;clip-rule:evenodd;fill:#BDD95B;" d="M246.803,190.178c1.971,0,3.57,1.597,3.57,3.57
							c0,1.971-1.598,3.568-3.57,3.568c-1.971,0-3.57-1.597-3.57-3.568C243.233,191.776,244.832,190.178,246.803,190.178z"/>
						<g>
							<rect x="253.099" y="174.45" style="fill-rule:evenodd;clip-rule:evenodd;fill:#3A3C6C;" width="8.024" height="0.947"/>
							<rect x="253.099" y="176.245" style="fill-rule:evenodd;clip-rule:evenodd;fill:#3A3C6C;" width="3.831" height="0.947"/>
						</g>
						<g>
							<rect x="253.099" y="182.943" style="fill-rule:evenodd;clip-rule:evenodd;fill:#3A3C6C;" width="8.024" height="0.948"/>
							<rect x="253.099" y="184.738" style="fill-rule:evenodd;clip-rule:evenodd;fill:#3A3C6C;" width="5.377" height="0.948"/>
						</g>
					</g>
					<g>
						<path style="fill-rule:evenodd;clip-rule:evenodd;fill:#3A3C6C;" d="M246.803,200.214c1.971,0,3.57,1.599,3.57,3.57
							c0,1.971-1.598,3.57-3.57,3.57c-1.971,0-3.57-1.598-3.57-3.57C243.233,201.812,244.832,200.214,246.803,200.214z"/>
						<path style="fill-rule:evenodd;clip-rule:evenodd;fill:#FFFFFF;" d="M246.803,209.178c1.971,0,3.57,1.597,3.57,3.568
							c0,1.971-1.598,3.57-3.57,3.57c-1.971,0-3.57-1.598-3.57-3.57C243.233,210.775,244.832,209.178,246.803,209.178z"/>
						<g>
							<rect x="253.099" y="191.775" style="fill-rule:evenodd;clip-rule:evenodd;fill:#3A3C6C;" width="8.024" height="0.948"/>
							<rect x="253.099" y="193.57" style="fill-rule:evenodd;clip-rule:evenodd;fill:#3A3C6C;" width="2.469" height="0.948"/>
						</g>
						<g>
							<rect x="253.099" y="200.269" style="fill-rule:evenodd;clip-rule:evenodd;fill:#3A3C6C;" width="4.011" height="0.947"/>
							<rect x="253.099" y="202.064" style="fill-rule:evenodd;clip-rule:evenodd;fill:#3A3C6C;" width="5.377" height="0.947"/>
						</g>
					</g>
				</g>
				<g>
					<rect x="243.698" y="164.035" style="fill-rule:evenodd;clip-rule:evenodd;fill:#FFFFFF;" width="42.609" height="0.335"/>
					<path style="fill-rule:evenodd;clip-rule:evenodd;fill:#FFFFFF;" d="M284.957,173.157h0.002c0.606,0,1.102,0.496,1.102,1.102
						v4.477c0,0.606-0.496,1.101-1.102,1.101h-0.002c-0.606,0-1.102-0.496-1.102-1.101v-4.477
						C283.855,173.653,284.35,173.157,284.957,173.157z"/>
				</g>
			</g>
		</g>
	</g>
	<g>
		<rect x="243.62" y="250.006" style="fill-rule:evenodd;clip-rule:evenodd;fill:#FFFFFF;" width="70.091" height="6.613"/>
		<g>
			<path style="fill-rule:evenodd;clip-rule:evenodd;fill:#6F89DB;" d="M167.064,256.618h270.132c1.819,0,3.306,1.487,3.306,3.306
				v0.001c0,1.819-1.487,3.306-3.306,3.306H167.064c-1.819,0-3.306-1.487-3.306-3.306v-0.001
				C163.758,258.105,165.245,256.618,167.064,256.618z"/>
			<g>
				<rect x="324.849" y="263.231" style="fill-rule:evenodd;clip-rule:evenodd;fill:#D6DAE6;" width="112.347" height="146.118"/>
				<polygon style="fill-rule:evenodd;clip-rule:evenodd;fill:#B3BCD3;" points="437.196,263.231 324.849,263.231 324.849,266.849 
					437.196,271.612 				"/>
				<path style="fill-rule:evenodd;clip-rule:evenodd;fill:#B3BCD3;" d="M324.849,336.996h44.564h23.218h44.564v1.224h-44.564v2.649
					c0,2.13-1.743,3.873-3.873,3.873h-15.472c-2.131,0-3.873-1.743-3.873-3.873v-2.649h-44.564V336.996L324.849,336.996z
					 M392.632,381.545v2.648c0,2.13-1.743,3.873-3.873,3.873h-15.472c-2.131,0-3.873-1.743-3.873-3.873v-2.648h-44.564v-1.226
					h44.564h23.218h44.564v1.226H392.632L392.632,381.545z M392.632,294.898v2.648c0,2.13-1.743,3.872-3.873,3.872h-15.472
					c-2.131,0-3.873-1.743-3.873-3.872v-2.648h-44.564v-1.226h44.564h23.218h44.564v1.226H392.632z"/>
			</g>
		</g>
		<g>
			<g>
				<path style="fill-rule:evenodd;clip-rule:evenodd;fill:#3A3C6C;" d="M371.758,256.618h56.334v-1.525h-43.785
					c-1.351,0-2.457-1.105-2.457-2.456l0,0c0-1.352,1.105-2.457,2.457-2.457h43.785v-1.525h-56.334
					c-2.189,0-3.981,1.792-3.981,3.981l0,0C367.777,254.826,369.569,256.618,371.758,256.618z"/>
				<path style="fill-rule:evenodd;clip-rule:evenodd;fill:#FFFFFF;" d="M384.308,255.093h41.806v-4.914h-41.806
					c-1.351,0-2.457,1.105-2.457,2.456v0.001C381.851,253.988,382.956,255.093,384.308,255.093z"/>
			</g>
			<g>
				<path style="fill-rule:evenodd;clip-rule:evenodd;fill:#6F89DB;" d="M375.196,248.656h56.335v-1.523h-43.786
					c-1.351,0-2.457-1.106-2.457-2.457l0,0c0-1.351,1.105-2.456,2.457-2.456h43.786v-1.525h-56.335
					c-2.189,0-3.981,1.792-3.981,3.981l0,0C371.215,246.865,373.006,248.656,375.196,248.656z"/>
				<path style="fill-rule:evenodd;clip-rule:evenodd;fill:#FFFFFF;" d="M387.745,247.132h41.806v-4.914h-41.806
					c-1.351,0-2.457,1.105-2.457,2.456v0.001C385.288,246.027,386.394,247.132,387.745,247.132z"/>
				<polygon style="fill-rule:evenodd;clip-rule:evenodd;fill:#CF4970;" points="389.565,244.28 395.048,244.28 395.048,253.105 
					392.244,251.433 389.565,253.105 				"/>
			</g>
		</g>
	</g>
	<g>
		<g>
			<path style="fill-rule:evenodd;clip-rule:evenodd;fill:#FFFFFF;" d="M222.192,124.727c0.144,2.97,0.25,7.343,0.012,12.159
				c0,0,3.016-1.675,3.419,1.132c0.404,2.805-2.04,4.829-3.96,5.387c-0.819,7.505-2.576,14.318-6.495,18.907
				c0,0-7.044,1.286-12.266,0.688l-0.053,14.116l-25.712-0.61c0,0,0.458-6.825,0.638-14.533c-1.167-0.747-1.817-2.197-1.365-4.795
				c0,0-0.061,1.511,1.405,2.741c0.016-0.991,0.027-1.989,0.03-2.98c-5.685-26.626-28.204-48.937-1.509-50.138
				c-3.933-12.229,23.947-27.585,39.626-5.449C213.249,90.956,238.213,102.588,222.192,124.727z"/>
			<g>
				<path style="fill-rule:evenodd;clip-rule:evenodd;fill:#EBB39D;" d="M220.87,121.887c0,0,0.796,7.317,0.463,16.1
					c0,0,2.998-1.674,3.434,1.132c0.436,2.807-1.984,4.831-3.898,5.389c-0.731,7.504-2.408,14.318-6.273,18.907
					c0,0-7.029,1.284-12.257,0.687l0.111,14.117l-25.719-0.612c0,0,0.559-10.073,0.479-19.566
					c5.368-0.001,10.734-0.001,16.101-0.003l1.269-14.64c0,0-7.47,2.539-8.814-5.228c-1.344-7.768,5.826-13.444,7.918-8.963
					l1.941,4.034l1.906-0.186l2.502-8.03C200.032,125.024,213.028,125.174,220.87,121.887z"/>
				<path style="fill-rule:evenodd;clip-rule:evenodd;fill:#DC8C8C;" d="M220.87,121.887c0,0,0.069,0.636,0.158,1.755
					c-4.151,2.045-10.745,3.995-19.466,2.469l-4.033,6.942l2.502-8.03C200.032,125.024,213.028,125.174,220.87,121.887z"/>
				<path style="fill-rule:evenodd;clip-rule:evenodd;fill:#DC8C8C;" d="M194.58,143.398l-0.03,0.01
					c-0.508,0.162-7.489,2.245-8.784-5.239c-0.567-3.278,0.382-6.182,1.825-8.108c3.554-1.022,6.296,6.484,6.296,6.484
					s-3.229,0.276-2.638,2.599c0.59,2.323,3.228,2.047,3.228,2.047L194.58,143.398z"/>
				<path style="fill-rule:evenodd;clip-rule:evenodd;fill:#DC8C8C;" d="M202.339,164.102l0.044,5.466
					c-2.451,0.099-5.81,0.724-9.151,1.499l-16.214-0.202c0.123-3.635,0.231-8.296,0.192-12.824v0.001l16.101-0.004
					C196.422,162.153,202.339,164.102,202.339,164.102z"/>
			</g>
			<g>
				<path style="fill-rule:evenodd;clip-rule:evenodd;fill:#3A3C6C;" d="M221.179,125.83c15.761-22.141-9.338-33.772-6.503-23.376
					c-15.938-22.137-43.638-6.781-39.561,5.447c-26.682,1.201-3.902,23.512,2.094,50.139c-0.006,4.566,15.609,3.866,16.101-0.003
					l1.269-14.64c0,0-7.47,2.539-8.814-5.228c-1.344-7.768,5.826-13.444,7.918-8.963l1.941,4.034l1.906-0.186l2.502-8.03
					c0,0,12.996,0.15,20.838-3.137C220.87,121.887,221.032,123.381,221.179,125.83L221.179,125.83z M175.777,158.279
					c0,0-0.164,5.598,10.709,4.016C186.487,162.295,174.281,167.493,175.777,158.279z"/>
				<path style="fill-rule:evenodd;clip-rule:evenodd;fill:#60629A;" d="M195.522,92.92c3.778,0,6.842,0.9,6.842,2.01
					c0,1.111-3.064,2.011-6.842,2.011c-3.779,0-6.843-0.9-6.843-2.011C188.679,93.821,191.743,92.92,195.522,92.92L195.522,92.92z
					 M169.116,109.52c2.424-0.137,4.364,0.547,4.336,1.527c-0.028,0.98-2.016,1.884-4.438,2.022
					c-2.423,0.137-4.363-0.547-4.335-1.527C164.707,110.562,166.695,109.656,169.116,109.52z"/>
			</g>
		</g>
		<g>
			<g>
				<path style="fill-rule:evenodd;clip-rule:evenodd;fill:#232446;" d="M157.046,273.938l-3.735,2.836
					c0,0-11.803,42.997,29.109,45.101l13.39,69.79c-1.267,0.138-2.262,1.22-2.262,2.523l0,0c0,1.397,1.143,2.538,2.54,2.538h0.694
					h20.293h1.216l-0.004-0.311c0.789-0.432,1.325-1.27,1.325-2.228l0,0c0-0.981-0.562-1.835-1.382-2.259l-1.134-90.207
					l-12.223,2.209l-16.159-27.901L157.046,273.938z"/>
				<path style="fill-rule:evenodd;clip-rule:evenodd;fill:#DC8C8C;" d="M215.648,396.726c1.573,2.072,4.545,6.676,5.142,12.547
					h-24.498c0,0-1.023-6.59,1.49-12.547H215.648z"/>
			</g>
			<g>
				<path style="fill-rule:evenodd;clip-rule:evenodd;fill:#3A3C6C;" d="M229.196,276.774l56.661,13.004
					c1.117,0.257,2.769,4.202,4.743,10.517c7.86,25.153,13.059,52.156,20.436,90.565c4.757,1.522,1.426,6.47,1.426,6.47
					l-0.189-0.028l0.006,0.028h-22.741h-0.38l-0.019-0.043c-8.084-0.972-2.552-5.902-2.552-5.902l-31.802-73.524
					c-25.763,1.861-81.03,7.182-80.433-35.581C204.067,286.565,229.196,276.774,229.196,276.774z"/>
				<path style="fill-rule:evenodd;clip-rule:evenodd;fill:#232446;" d="M229.196,276.774l16.286,3.739
					c-5.963,3.245-16.695,8.4-31.983,13.15c5.107,2.956,19.586,8.432,55.796,7.272l0.183-0.006l26.038,87.899l-0.456,0.134
					l-25.934-87.547c-36.902,1.163-51.324-4.615-56.222-7.568c-9.485,2.917-20.694,5.67-33.582,7.715
					c-3.238-4.972-5.08-11.286-4.968-19.282C204.067,286.565,229.196,276.774,229.196,276.774z"/>
				<path style="fill-rule:evenodd;clip-rule:evenodd;fill:#EBB39D;" d="M321.187,409.347l0.001,0.002h-32.715
					c0,0-1.469-4.172,0.685-12.019h23.303c0,0,16.056,5.295,16.205,12.017H321.187z"/>
			</g>
		</g>
		<g>
			<path style="fill-rule:evenodd;clip-rule:evenodd;fill:#DADEE9;" d="M160.277,236.727c0,0,11.324-52.816-8.141-53.914
				c-19.005-1.071-17.085,58.312-8.634,71.455c8.452,13.142,53.81-7.468,53.81-7.468s2.48-7.375-5.478-11.869L160.277,236.727z"/>
			<g>
				<path style="fill-rule:evenodd;clip-rule:evenodd;fill:#FFFFFF;" d="M205.932,172.241c6.755,1.622,18.421,5.172,24.161,11.322
					c8.365,8.963-3.884,65.129-0.897,93.211c-3.286,7.171-46.125,21.401-75.884,0c0,0-8.514-50.489-4.331-92.315
					c0,0,7.947-4.931,16.07-8.936v-0.001c2.404-7.479,11.681-4.661,11.681-4.661c6.413,1.037,29.714-3.517,29.383,0.014
					C206.125,171.214,206.063,171.677,205.932,172.241z"/>
				<path style="fill-rule:evenodd;clip-rule:evenodd;fill:#E7EAF3;" d="M224.378,182.547c2.194,1.235,4.169,2.638,5.714,4.222
					c6.694,6.861,0.187,42.635-1.149,70.419c-0.219-0.168-0.436-0.346-0.65-0.545c-11.818-11.004-19.965-74.398-4.108-74.106
					C224.251,182.538,224.313,182.544,224.378,182.547z"/>
				<path style="fill-rule:evenodd;clip-rule:evenodd;fill:#DADEE9;" d="M175.646,170.609c0.672,0.128,1.084,0.252,1.084,0.252
					l0.287,0.003c8.654,0.108,19.685-1.601,26.539-1.301c4.986,4.268-29.996,17.954-31.302,3.436
					C172.04,170.627,174.165,170.451,175.646,170.609L175.646,170.609z M204.777,174.199c0,0-1.3,6.605-9.191,9.781
					C195.587,183.98,207.368,183.82,204.777,174.199L204.777,174.199z M166.387,178.512c-4.038,15.84,10.158,10.946,10.158,10.946
					C166.544,189.851,166.387,178.512,166.387,178.512z"/>
			</g>
			<g>
				<path style="fill-rule:evenodd;clip-rule:evenodd;fill:#FFFFFF;" d="M224.186,179.139c-15.887-0.306-4.473,74.652,12.589,77.479
					c20,3.314,28.349-20.932,31.577-44.277l-12.258-4.697c0,0-11.268,13.537-13.315,19.302
					C239.238,212.87,240.071,179.443,224.186,179.139z"/>
				<path style="fill-rule:evenodd;clip-rule:evenodd;fill:#E7EAF3;" d="M246.192,220.781c-1.161,1.811-2.29,3.747-3.234,5.649
					c1.828,5.313,1.889,13.987,1.889,13.987C248.942,231.136,247.518,224.072,246.192,220.781z"/>
				<path style="fill-rule:evenodd;clip-rule:evenodd;fill:#3A3C6C;" d="M244.443,243.557c0.003-0.023,0.98-8.181-1.777-16.574
					c-0.727-2.211-1.323-6.312-2.033-11.202c-1.998-13.749-4.906-33.752-14.089-35.115l0.035-0.236
					c9.356,1.389,12.281,21.496,14.289,35.318c0.709,4.876,1.303,8.969,2.024,11.161c2.772,8.441,1.788,16.649,1.786,16.672
					L244.443,243.557z"/>
				<g>
					<path style="fill-rule:evenodd;clip-rule:evenodd;fill:#FFFFFF;" d="M268.352,212.341l7.35-12.809l-0.352-4.156
						c-1.789-1.811-8.468-6.116-8.468-6.116s0.093-1.772,0.638-5.118c0.545-3.347-3.861-3.938-4.362-2.073l-6.882,25.575
						L268.352,212.341z"/>
					<path style="fill-rule:evenodd;clip-rule:evenodd;fill:#EBB39D;" d="M268.352,212.341l6.855-12.809l-0.513-4.156
						c-1.859-1.811-8.705-6.116-8.705-6.116s0.025-1.772,0.441-5.118c0.415-3.347-4.014-3.938-4.443-2.073l-5.893,25.575
						L268.352,212.341z"/>
					<path style="fill-rule:evenodd;clip-rule:evenodd;fill:#DC8C8C;" d="M268.352,212.341l2.318-4.33
						c-7.55,1.098-11.925-0.848-14.104-2.406l-0.471,2.039L268.352,212.341z"/>
				</g>
			</g>
		</g>
	</g>
	<g>
		<path style="fill-rule:evenodd;clip-rule:evenodd;fill:#3A3C6C;" d="M139.832,319.696h82.575v6.616
			c0,3.639-2.975,6.614-6.614,6.614h-69.346c-3.639,0-6.615-2.975-6.615-6.614V319.696z"/>
		<path style="fill-rule:evenodd;clip-rule:evenodd;fill:#9AB4FB;" d="M117.101,222.592h3.895h57.765h3.895
			c4.284,0,7.79,3.505,7.79,7.79v1.39l7.765,71.019c0,0-1.863,13.726,7.453,13.726c8.123,0,32.652-0.535,43.539-0.781
			c1.449-0.032,2.707,0.464,3.743,1.478c1.037,1.014,1.561,2.261,1.561,3.709v3.832l-128.19,0.901c0,0-9.005-1.087-9.316-14.44
			l-7.696-79.445h0.006v-1.39C109.311,226.097,112.816,222.592,117.101,222.592z"/>
		<path style="fill-rule:evenodd;clip-rule:evenodd;fill:#6F89DB;" d="M179.265,222.592l7.766,87.295c0,0-0.062,0.524-0.108,1.383
			c-0.238,4.555,0.135,14.387,7.666,14.387c22.636,0,37.283-0.901,59.918-0.901v-3.929c0-1.437-0.516-2.673-1.535-3.685
			c-1.021-1.012-2.262-1.517-3.699-1.504c-15.88,0.141-26.479,0.878-43.609,0.878c-4.806,0-7.064-3.958-7.453-8.328
			c-0.341-2.878,0-5.397,0-5.397l-1.485-13.852h48.917c1.485,0,2.074-1.131,2.074-2.531c0-5.716-4.661-10.378-10.376-10.378h-42
			l-4.895-45.648c-0.457-4.26-3.506-7.79-7.79-7.79H179.265z"/>
		<path style="fill-rule:evenodd;clip-rule:evenodd;fill:#3A3C6C;" d="M177.486,329.035h7.264v74.064H201.2
			c2.391,0,4.347,1.955,4.347,4.346v4.346H184.75h-7.264h-20.798v-4.346c0-2.391,1.956-4.346,4.346-4.346h16.452V329.035z"/>
	</g>
	<g>
		<g>
			<path style="fill-rule:evenodd;clip-rule:evenodd;fill:#3A3C6C;" d="M113.2,158.12c1.827,0.063,3.36-1.367,3.423-3.194
				c0.063-1.827-1.366-3.36-3.194-3.423c-1.827-0.063-3.36,1.366-3.423,3.194C109.943,156.524,111.373,158.057,113.2,158.12z"/>
			<path style="fill-rule:evenodd;clip-rule:evenodd;fill:#3A3C6C;" d="M125.348,158.597c1.827,0.063,3.36-1.366,3.423-3.193
				c0.063-1.827-1.366-3.359-3.194-3.423c-1.827-0.063-3.36,1.366-3.423,3.193C122.091,157.002,123.521,158.534,125.348,158.597z"/>
			<path style="fill-rule:evenodd;clip-rule:evenodd;fill:#3A3C6C;" d="M137.496,158.359c1.827,0.063,3.36-1.366,3.423-3.194
				c0.063-1.828-1.367-3.36-3.194-3.423c-1.827-0.063-3.36,1.367-3.423,3.194C134.239,156.763,135.669,158.295,137.496,158.359z"/>
		</g>
		<path style="fill-rule:evenodd;clip-rule:evenodd;fill:#FFFFFF;" d="M226.049,81.222l-2.99,4.717l-2.068-1.311l2.99-4.718
			L226.049,81.222L226.049,81.222z M227.793,89.622l5.254-2.659l1.102,2.183l-5.254,2.659L227.793,89.622z"/>
		<path style="fill-rule:evenodd;clip-rule:evenodd;fill:#FFFFFF;" d="M338.83,108.354l-1.946,2.076l-0.889-0.838l1.945-2.075
			L338.83,108.354L338.83,108.354z M294.936,120.288l2.585,0.558l-0.258,1.197l-2.585-0.558L294.936,120.288L294.936,120.288z
			 M308.319,101.244l3.25,5.629l-1.058,0.607l-3.25-5.628L308.319,101.244z"/>
		<path style="fill-rule:evenodd;clip-rule:evenodd;fill:#96C042;" d="M120.412,193.914c0.65,0,1.181-0.531,1.181-1.181
			c0-0.65-0.531-1.182-1.181-1.182s-1.182,0.532-1.182,1.182C119.229,193.384,119.761,193.914,120.412,193.914z"/>
		<path style="fill-rule:evenodd;clip-rule:evenodd;fill:#96C042;" d="M57.179,282.264c1.561,0,2.834-1.274,2.834-2.835
			c0-1.561-1.273-2.835-2.834-2.835s-2.835,1.274-2.835,2.835C54.344,280.991,55.618,282.264,57.179,282.264z"/>
		<path style="fill-rule:evenodd;clip-rule:evenodd;fill:#3A3C6C;" d="M428.394,180.234c1.481,0,2.689-1.207,2.689-2.688
			c0-1.481-1.208-2.69-2.689-2.69c-1.481,0-2.69,1.208-2.69,2.69C425.704,179.027,426.912,180.234,428.394,180.234z"/>
		<path style="fill-rule:evenodd;clip-rule:evenodd;fill:#3A3C6C;" d="M289.317,275.964c0.867,0,1.575-0.708,1.575-1.575
			c0-0.867-0.708-1.574-1.575-1.574c-0.867,0-1.573,0.707-1.573,1.574C287.744,275.256,288.45,275.964,289.317,275.964z"/>
		<path style="fill-rule:evenodd;clip-rule:evenodd;fill:#3A3C6C;" d="M438.776,204.779c0.607,0,1.103-0.494,1.103-1.101
			c0-0.607-0.496-1.103-1.103-1.103c-0.607,0-1.103,0.496-1.103,1.103C437.673,204.285,438.168,204.779,438.776,204.779z"/>
	</g>
</g>
</svg>
