<?xml version="1.0" encoding="UTF-8"?>
<svg width="40px" height="40px" viewBox="0 0 40 40" version="1.1" xmlns="http://www.w3.org/2000/svg" xmlns:xlink="http://www.w3.org/1999/xlink">
    <title>ic_product features/small/participant_removal </title>
    <g id="product-features/small/participant_removal-" stroke="none" stroke-width="1" fill="none" fill-rule="evenodd">
        <rect id="40px-Bounding-Box" fill-rule="nonzero" x="0" y="0" width="40" height="40"></rect>
        <g id="participant_removal-" transform="translate(2.000000, 5.000000)" stroke="#000000" stroke-linejoin="round" stroke-width="2">
            <path d="M8.60102952,18.6675789 L8.60102952,21.8949474 L2.43800091,24.1244211 C0.961751482,24.6581053 0,26.0712632 0,27.6502105 L0,29.9996842 L23.4573532,29.9996842 L23.4573532,27.6502105 C23.4573532,26.0712632 22.4940379,24.6581053 21.0193523,24.1244211 L14.8563237,21.8949474 L14.8563237,18.666" id="Stroke-3359"></path>
            <path d="M17.9015573,12.2144211 C17.9015573,16.3481053 15.1367173,19.7002105 11.7291458,19.7002105 C8.3184466,19.7002105 5.55517039,16.3481053 5.55517039,12.2144211 C5.55517039,8.08547368 8.3184466,4.73652632 11.7291458,4.73652632 C15.1367173,4.73652632 17.9015573,8.08547368 17.9015573,12.2144211 L17.9015573,12.2144211 Z" id="Stroke-3360"></path>
            <path d="M17.8526096,11.5428947 C17.6461849,11.5713158 17.4757282,11.5523684 17.2677396,11.595 C15.164397,12.0023684 13.8148172,11.2334211 12.656024,9.18710526 C11.9616863,10.5307895 9.79266306,11.595 8.00834039,11.595 C7.13103538,11.595 6.37414478,11.4134211 5.61881801,11.0123684" id="Stroke-3361"></path>
            <path d="M21.1116179,4.73684211 C24.5207532,4.73684211 27.2840295,8.08578947 27.2840295,12.2147368 C27.2840295,16.3484211 24.5207532,19.7005263 21.1116179,19.7005263" id="Stroke-3362" stroke-linecap="round"></path>
            <path d="M27.2355509,11.5428947 C27.0291262,11.5713158 26.8586694,11.5523684 26.6506809,11.595 C24.5473382,12.0023684 23.1977585,11.2334211 22.0389653,9.18710526" id="Stroke-3363" stroke-linecap="round"></path>
            <path d="M27.4157034,30 L32.8406073,30 L32.8406073,27.6505263 C32.8406073,26.0715789 31.877292,24.6584211 30.4026064,24.1247368 L24.2395778,21.8952632 L24.2395778,18.6663158" id="Stroke-3364" stroke-linecap="round"></path>
            <line x1="26.6170587" y1="0" x2="36" y2="0" id="Stroke-3365" stroke-linecap="round"></line>
        </g>
    </g>
</svg>